<?xml version="1.0" encoding="UTF-8" standalone="no"?>
<!DOCTYPE svg PUBLIC "-//W3C//DTD SVG 1.1//EN"
 "http://www.w3.org/Graphics/SVG/1.1/DTD/svg11.dtd">
<!-- Generated by graphviz version 2.36.0 (20140111.2315)
 -->
<!-- Title: model Pages: 1 -->
<svg width="300pt" height="548pt"
 viewBox="0.00 0.00 300.00 548.00" xmlns="http://www.w3.org/2000/svg" xmlns:xlink="http://www.w3.org/1999/xlink">
<g id="graph0" class="graph" transform="scale(1 1) rotate(0) translate(4 544)">
<title>model</title>
<polygon fill="white" stroke="none" points="-4,4 -4,-544 296,-544 296,4 -4,4"/>
<!-- LeadLeft -->
<g id="node1" class="node"><title>LeadLeft</title>
<ellipse fill="none" stroke="black" cx="42" cy="-522" rx="42.3456" ry="18"/>
<text text-anchor="middle" x="42" y="-518.3" font-family="Times,serif" font-size="14.00">LeadLeft</text>
</g>
<!-- LeadData -->
<g id="node2" class="node"><title>LeadData</title>
<ellipse fill="none" stroke="black" cx="161" cy="-450" rx="44.271" ry="18"/>
<text text-anchor="middle" x="161" y="-446.3" font-family="Times,serif" font-size="14.00">LeadData</text>
</g>
<!-- LeadLeft&#45;&gt;LeadData -->
<g id="edge1" class="edge"><title>LeadLeft&#45;&gt;LeadData</title>
<path fill="none" stroke="black" d="M65.7954,-507.003C83.6762,-496.485 108.384,-481.951 128.147,-470.325"/>
<polygon fill="black" stroke="black" points="129.993,-473.3 136.838,-465.213 126.444,-467.266 129.993,-473.3"/>
</g>
<!-- LeadCrossValidate -->
<g id="node5" class="node"><title>LeadCrossValidate</title>
<ellipse fill="none" stroke="black" cx="161" cy="-378" rx="77.4897" ry="18"/>
<text text-anchor="middle" x="161" y="-374.3" font-family="Times,serif" font-size="14.00">LeadCrossValidate</text>
</g>
<!-- LeadData&#45;&gt;LeadCrossValidate -->
<g id="edge4" class="edge"><title>LeadData&#45;&gt;LeadCrossValidate</title>
<path fill="none" stroke="black" d="M161,-431.697C161,-423.983 161,-414.712 161,-406.112"/>
<polygon fill="black" stroke="black" points="164.5,-406.104 161,-396.104 157.5,-406.104 164.5,-406.104"/>
</g>
<!-- Aggregations -->
<g id="node3" class="node"><title>Aggregations</title>
<ellipse fill="none" stroke="black" cx="161" cy="-522" rx="57.2688" ry="18"/>
<text text-anchor="middle" x="161" y="-518.3" font-family="Times,serif" font-size="14.00">Aggregations</text>
</g>
<!-- Aggregations&#45;&gt;LeadData -->
<g id="edge2" class="edge"><title>Aggregations&#45;&gt;LeadData</title>
<path fill="none" stroke="black" d="M161,-503.697C161,-495.983 161,-486.712 161,-478.112"/>
<polygon fill="black" stroke="black" points="164.5,-478.104 161,-468.104 157.5,-478.104 164.5,-478.104"/>
</g>
<!-- ACS -->
<g id="node4" class="node"><title>ACS</title>
<ellipse fill="none" stroke="black" cx="265" cy="-522" rx="27.4223" ry="18"/>
<text text-anchor="middle" x="265" y="-518.3" font-family="Times,serif" font-size="14.00">ACS</text>
</g>
<!-- ACS&#45;&gt;LeadData -->
<g id="edge3" class="edge"><title>ACS&#45;&gt;LeadData</title>
<path fill="none" stroke="black" d="M246.407,-508.485C231.143,-498.212 209.22,-483.456 191.407,-471.466"/>
<polygon fill="black" stroke="black" points="193.29,-468.515 183.04,-465.834 189.381,-474.322 193.29,-468.515"/>
</g>
<!-- Mean -->
<g id="node6" class="node"><title>Mean</title>
<ellipse fill="none" stroke="black" cx="102" cy="-306" rx="31.2965" ry="18"/>
<text text-anchor="middle" x="102" y="-302.3" font-family="Times,serif" font-size="14.00">Mean</text>
</g>
<!-- LeadCrossValidate&#45;&gt;Mean -->
<g id="edge5" class="edge"><title>LeadCrossValidate&#45;&gt;Mean</title>
<path fill="none" stroke="black" d="M146.718,-360.055C139.258,-351.204 130.009,-340.231 121.863,-330.566"/>
<polygon fill="black" stroke="black" points="124.463,-328.22 115.342,-322.829 119.11,-332.731 124.463,-328.22"/>
</g>
<!-- Impute -->
<g id="node7" class="node"><title>Impute</title>
<ellipse fill="none" stroke="black" cx="135" cy="-234" rx="36.096" ry="18"/>
<text text-anchor="middle" x="135" y="-230.3" font-family="Times,serif" font-size="14.00">Impute</text>
</g>
<!-- LeadCrossValidate&#45;&gt;Impute -->
<g id="edge6" class="edge"><title>LeadCrossValidate&#45;&gt;Impute</title>
<path fill="none" stroke="black" d="M157.864,-359.871C153.433,-335.67 145.292,-291.211 140.016,-262.393"/>
<polygon fill="black" stroke="black" points="143.391,-261.395 138.147,-252.189 136.506,-262.656 143.391,-261.395"/>
</g>
<!-- LeadTransform -->
<g id="node8" class="node"><title>LeadTransform</title>
<ellipse fill="none" stroke="black" cx="167" cy="-162" rx="65.4659" ry="18"/>
<text text-anchor="middle" x="167" y="-158.3" font-family="Times,serif" font-size="14.00">LeadTransform</text>
</g>
<!-- LeadCrossValidate&#45;&gt;LeadTransform -->
<g id="edge8" class="edge"><title>LeadCrossValidate&#45;&gt;LeadTransform</title>
<path fill="none" stroke="black" d="M165.773,-359.604C173.266,-330.074 186.315,-268.252 180,-216 178.961,-207.403 177.007,-198.188 174.923,-189.893"/>
<polygon fill="black" stroke="black" points="178.24,-188.748 172.274,-179.993 171.478,-190.558 178.24,-188.748"/>
</g>
<!-- Mean&#45;&gt;Impute -->
<g id="edge7" class="edge"><title>Mean&#45;&gt;Impute</title>
<path fill="none" stroke="black" d="M109.821,-288.411C113.668,-280.249 118.396,-270.22 122.712,-261.065"/>
<polygon fill="black" stroke="black" points="125.908,-262.494 127.006,-251.956 119.576,-259.509 125.908,-262.494"/>
</g>
<!-- Impute&#45;&gt;LeadTransform -->
<g id="edge9" class="edge"><title>Impute&#45;&gt;LeadTransform</title>
<path fill="none" stroke="black" d="M142.746,-216.055C146.387,-208.091 150.812,-198.411 154.881,-189.51"/>
<polygon fill="black" stroke="black" points="158.128,-190.825 159.103,-180.275 151.762,-187.915 158.128,-190.825"/>
</g>
<!-- Fit -->
<g id="node9" class="node"><title>Fit</title>
<ellipse fill="none" stroke="black" cx="140" cy="-90" rx="27" ry="18"/>
<text text-anchor="middle" x="140" y="-86.3" font-family="Times,serif" font-size="14.00">Fit</text>
</g>
<!-- LeadTransform&#45;&gt;Fit -->
<g id="edge10" class="edge"><title>LeadTransform&#45;&gt;Fit</title>
<path fill="none" stroke="black" d="M160.464,-144.055C157.38,-136.059 153.628,-126.331 150.183,-117.4"/>
<polygon fill="black" stroke="black" points="153.34,-115.859 146.476,-107.789 146.809,-118.379 153.34,-115.859"/>
</g>
<!-- Predict -->
<g id="node10" class="node"><title>Predict</title>
<ellipse fill="none" stroke="black" cx="167" cy="-18" rx="35.6194" ry="18"/>
<text text-anchor="middle" x="167" y="-14.3" font-family="Times,serif" font-size="14.00">Predict</text>
</g>
<!-- LeadTransform&#45;&gt;Predict -->
<g id="edge12" class="edge"><title>LeadTransform&#45;&gt;Predict</title>
<path fill="none" stroke="black" d="M170.654,-143.908C172.676,-133.569 174.981,-120.09 176,-108 177.344,-92.0566 177.344,-87.9434 176,-72 175.283,-63.4991 173.931,-54.3119 172.488,-46.0122"/>
<polygon fill="black" stroke="black" points="175.914,-45.2892 170.654,-36.0925 169.031,-46.5623 175.914,-45.2892"/>
</g>
<!-- Fit&#45;&gt;Predict -->
<g id="edge11" class="edge"><title>Fit&#45;&gt;Predict</title>
<path fill="none" stroke="black" d="M146.399,-72.411C149.514,-64.3352 153.334,-54.4312 156.835,-45.3547"/>
<polygon fill="black" stroke="black" points="160.126,-46.5458 160.46,-35.9562 153.595,-44.0267 160.126,-46.5458"/>
</g>
</g>
</svg>
